<mxfile host="app.diagrams.net" modified="2024-05-30T08:53:48.834Z" agent="Mozilla/5.0 (Windows NT 10.0; Win64; x64; rv:126.0) Gecko/20100101 Firefox/126.0" etag="zBxxV74tIdh9UuFs76GC" version="24.4.10" type="device">
  <diagram name="Page-1" id="ow-BSi0Il2i30G2agdz9">
    <mxGraphModel dx="1434" dy="734" grid="1" gridSize="10" guides="1" tooltips="1" connect="1" arrows="1" fold="1" page="1" pageScale="1" pageWidth="850" pageHeight="1100" math="0" shadow="0">
      <root>
        <mxCell id="0" />
        <mxCell id="1" parent="0" />
        <mxCell id="1KmOOLEJyLf9FUbbV31F-4" value="&lt;font style=&quot;font-size: 21px;&quot; color=&quot;#330000&quot;&gt;Librarian&lt;/font&gt;" style="shape=umlActor;verticalLabelPosition=bottom;verticalAlign=top;html=1;outlineConnect=0;fillColor=#6a00ff;fontColor=#ffffff;strokeColor=#3700CC;rounded=1;fontStyle=3" vertex="1" parent="1">
          <mxGeometry x="10" y="310" width="100" height="180" as="geometry" />
        </mxCell>
        <mxCell id="1KmOOLEJyLf9FUbbV31F-6" value="&lt;u style=&quot;background-color: rgb(0, 0, 255);&quot;&gt;&lt;font color=&quot;#ff99cc&quot; style=&quot;font-size: 21px;&quot;&gt;Check Avaliabiliity of Book&lt;/font&gt;&lt;/u&gt;" style="ellipse;whiteSpace=wrap;html=1;fillColor=#a20025;strokeColor=#6F0000;fontColor=#ffffff;rounded=1;fontSize=20;fontStyle=1" vertex="1" parent="1">
          <mxGeometry x="240" y="340" width="370" height="80" as="geometry" />
        </mxCell>
        <mxCell id="1KmOOLEJyLf9FUbbV31F-7" value="&lt;font style=&quot;font-size: 15px;&quot;&gt;Register Member&lt;/font&gt;" style="ellipse;whiteSpace=wrap;html=1;fillColor=#60a917;fontColor=#ffffff;strokeColor=#2D7600;rounded=1;fontStyle=1" vertex="1" parent="1">
          <mxGeometry x="160" y="50" width="210" height="80" as="geometry" />
        </mxCell>
        <mxCell id="1KmOOLEJyLf9FUbbV31F-8" value="&lt;font size=&quot;1&quot;&gt;&lt;b style=&quot;font-size: 16px;&quot;&gt;Issue Book&lt;/b&gt;&lt;/font&gt;" style="ellipse;whiteSpace=wrap;html=1;fillColor=#d80073;fontColor=#ffffff;strokeColor=#A50040;rounded=1;" vertex="1" parent="1">
          <mxGeometry x="210" y="200" width="190" height="80" as="geometry" />
        </mxCell>
        <mxCell id="1KmOOLEJyLf9FUbbV31F-9" value="&lt;font color=&quot;#ffff66&quot; style=&quot;font-size: 16px;&quot;&gt;Return Book&lt;/font&gt;" style="ellipse;whiteSpace=wrap;html=1;fillColor=#76608a;fontColor=#ffffff;strokeColor=#432D57;rounded=1;fontStyle=1" vertex="1" parent="1">
          <mxGeometry x="370" y="500" width="210" height="80" as="geometry" />
        </mxCell>
        <mxCell id="1KmOOLEJyLf9FUbbV31F-10" value="&lt;font color=&quot;#ffffff&quot; style=&quot;font-size: 16px;&quot;&gt;Calculate Fine&lt;/font&gt;" style="ellipse;whiteSpace=wrap;html=1;fillColor=#fa6800;fontColor=#000000;strokeColor=#C73500;rounded=1;fontStyle=1" vertex="1" parent="1">
          <mxGeometry x="390" y="620" width="190" height="80" as="geometry" />
        </mxCell>
        <mxCell id="1KmOOLEJyLf9FUbbV31F-11" value="&lt;div align=&quot;center&quot;&gt;&lt;font style=&quot;font-size: 15px;&quot;&gt;Maintaining Book&lt;/font&gt;&lt;/div&gt;" style="ellipse;whiteSpace=wrap;html=1;fillColor=#008a00;fontColor=#ffffff;strokeColor=#005700;rounded=1;fontStyle=1;align=center;" vertex="1" parent="1">
          <mxGeometry x="210" y="700" width="230" height="80" as="geometry" />
        </mxCell>
        <mxCell id="1KmOOLEJyLf9FUbbV31F-12" value="&lt;font style=&quot;font-size: 16px;&quot;&gt;Enquiry &lt;/font&gt;" style="ellipse;whiteSpace=wrap;html=1;fillColor=#1ba1e2;fontColor=#ffffff;strokeColor=#006EAF;rounded=1;fontStyle=1" vertex="1" parent="1">
          <mxGeometry x="500" width="190" height="80" as="geometry" />
        </mxCell>
        <mxCell id="1KmOOLEJyLf9FUbbV31F-13" value="&lt;font style=&quot;font-size: 16px;&quot;&gt;Verify Member&lt;/font&gt;" style="ellipse;whiteSpace=wrap;html=1;fillColor=#e51400;strokeColor=#B20000;fontColor=#ffffff;rounded=1;fontStyle=1" vertex="1" parent="1">
          <mxGeometry x="520" y="130" width="180" height="80" as="geometry" />
        </mxCell>
        <mxCell id="1KmOOLEJyLf9FUbbV31F-14" value="&lt;font style=&quot;font-size: 20px;&quot;&gt;Member&lt;/font&gt;" style="shape=umlActor;verticalLabelPosition=bottom;verticalAlign=top;html=1;outlineConnect=0;fillColor=#e3c800;fontColor=#000000;strokeColor=#B09500;rounded=1;fontStyle=3" vertex="1" parent="1">
          <mxGeometry x="740" y="300" width="90" height="150" as="geometry" />
        </mxCell>
        <mxCell id="1KmOOLEJyLf9FUbbV31F-16" value="" style="endArrow=classic;html=1;rounded=1;" edge="1" parent="1">
          <mxGeometry width="50" height="50" relative="1" as="geometry">
            <mxPoint x="110" y="350" as="sourcePoint" />
            <mxPoint x="210" y="270" as="targetPoint" />
            <Array as="points" />
          </mxGeometry>
        </mxCell>
        <mxCell id="1KmOOLEJyLf9FUbbV31F-17" value="" style="endArrow=classic;html=1;rounded=1;" edge="1" parent="1">
          <mxGeometry width="50" height="50" relative="1" as="geometry">
            <mxPoint x="120" y="380" as="sourcePoint" />
            <mxPoint x="360" y="520" as="targetPoint" />
          </mxGeometry>
        </mxCell>
        <mxCell id="1KmOOLEJyLf9FUbbV31F-19" value="" style="endArrow=classic;html=1;rounded=1;" edge="1" parent="1">
          <mxGeometry width="50" height="50" relative="1" as="geometry">
            <mxPoint x="120" y="390" as="sourcePoint" />
            <mxPoint x="270" y="690" as="targetPoint" />
          </mxGeometry>
        </mxCell>
        <mxCell id="1KmOOLEJyLf9FUbbV31F-20" value="" style="endArrow=classic;html=1;rounded=1;" edge="1" parent="1">
          <mxGeometry width="50" height="50" relative="1" as="geometry">
            <mxPoint x="270" y="200" as="sourcePoint" />
            <mxPoint x="280" y="140" as="targetPoint" />
          </mxGeometry>
        </mxCell>
        <mxCell id="1KmOOLEJyLf9FUbbV31F-21" value="" style="endArrow=classic;html=1;rounded=1;" edge="1" parent="1">
          <mxGeometry width="50" height="50" relative="1" as="geometry">
            <mxPoint x="290" y="290" as="sourcePoint" />
            <mxPoint x="370" y="330" as="targetPoint" />
          </mxGeometry>
        </mxCell>
        <mxCell id="1KmOOLEJyLf9FUbbV31F-22" value="" style="endArrow=classic;html=1;rounded=1;" edge="1" parent="1">
          <mxGeometry width="50" height="50" relative="1" as="geometry">
            <mxPoint x="470" y="580" as="sourcePoint" />
            <mxPoint x="480" y="610" as="targetPoint" />
          </mxGeometry>
        </mxCell>
        <mxCell id="1KmOOLEJyLf9FUbbV31F-23" value="" style="endArrow=classic;html=1;rounded=1;" edge="1" parent="1">
          <mxGeometry width="50" height="50" relative="1" as="geometry">
            <mxPoint x="480" y="330" as="sourcePoint" />
            <mxPoint x="570" y="220" as="targetPoint" />
          </mxGeometry>
        </mxCell>
        <mxCell id="1KmOOLEJyLf9FUbbV31F-24" value="" style="endArrow=classic;html=1;rounded=1;" edge="1" parent="1">
          <mxGeometry width="50" height="50" relative="1" as="geometry">
            <mxPoint x="730" y="360" as="sourcePoint" />
            <mxPoint x="590" y="520" as="targetPoint" />
          </mxGeometry>
        </mxCell>
        <mxCell id="1KmOOLEJyLf9FUbbV31F-25" value="" style="endArrow=classic;html=1;rounded=1;" edge="1" parent="1" target="1KmOOLEJyLf9FUbbV31F-6">
          <mxGeometry width="50" height="50" relative="1" as="geometry">
            <mxPoint x="400" y="420" as="sourcePoint" />
            <mxPoint x="450" y="370" as="targetPoint" />
          </mxGeometry>
        </mxCell>
        <mxCell id="1KmOOLEJyLf9FUbbV31F-26" value="" style="endArrow=classic;html=1;rounded=1;entryX=0.895;entryY=0.875;entryDx=0;entryDy=0;entryPerimeter=0;" edge="1" parent="1" target="1KmOOLEJyLf9FUbbV31F-12">
          <mxGeometry width="50" height="50" relative="1" as="geometry">
            <mxPoint x="780" y="290" as="sourcePoint" />
            <mxPoint x="670" y="90" as="targetPoint" />
          </mxGeometry>
        </mxCell>
        <mxCell id="1KmOOLEJyLf9FUbbV31F-27" value="" style="endArrow=classic;html=1;rounded=1;strokeColor=#0000a0;entryX=1;entryY=0.625;entryDx=0;entryDy=0;entryPerimeter=0;" edge="1" parent="1" target="1KmOOLEJyLf9FUbbV31F-8">
          <mxGeometry width="50" height="50" relative="1" as="geometry">
            <mxPoint x="730" y="350" as="sourcePoint" />
            <mxPoint x="420" y="250" as="targetPoint" />
          </mxGeometry>
        </mxCell>
      </root>
    </mxGraphModel>
  </diagram>
</mxfile>
